<svg width="1440" height="846" viewBox="0 0 1440 846" fill="none" xmlns="http://www.w3.org/2000/svg">
<path d="M0 846H1440V0H146C65.3664 0 0 65.3665 0 146V846Z" fill="#6070FF"/>
<path d="M1337.14 64.0876L1238.59 106.279L1248.31 128.985L1346.86 86.7933L1337.14 64.0876Z" fill="#7F8CFF"/>
<path d="M1384.7 136.842C1379.73 128.018 1372.75 120.488 1364.32 114.863C1355.9 109.238 1346.27 105.675 1336.22 104.463C1326.16 103.252 1315.96 104.425 1306.45 107.888C1296.93 111.351 1288.36 117.007 1281.43 124.397C1274.51 131.788 1269.42 140.705 1266.58 150.428C1263.75 160.15 1263.24 170.404 1265.1 180.359C1266.96 190.315 1271.14 199.692 1277.3 207.731C1283.46 215.77 1291.43 222.246 1300.56 226.633L1312.58 201.618C1307.38 199.119 1302.84 195.43 1299.33 190.85C1295.82 186.27 1293.44 180.928 1292.38 175.256C1291.32 169.585 1291.61 163.743 1293.23 158.204C1294.84 152.665 1297.74 147.585 1301.69 143.375C1305.63 139.164 1310.51 135.942 1315.94 133.969C1321.36 131.996 1327.17 131.328 1332.9 132.018C1338.63 132.709 1344.11 134.739 1348.91 137.943C1353.71 141.148 1357.68 145.437 1360.51 150.464L1384.7 136.842Z" fill="white"/>
<path d="M510.5 126C517.956 126 524 119.956 524 112.5C524 105.044 517.956 99 510.5 99C503.044 99 497 105.044 497 112.5C497 119.956 503.044 126 510.5 126Z" fill="#7F8CFF"/>
<path d="M205.042 410.91L110.857 340.606L123.434 323.757L217.619 394.06L205.042 410.91Z" fill="#7F8CFF"/>
<path d="M118.1 407.793C126.806 417.788 141.966 418.833 151.961 410.127C161.956 401.422 163.001 386.262 154.295 376.267C145.589 366.272 130.429 365.227 120.434 373.932C110.439 382.638 109.394 397.798 118.1 407.793Z" fill="white"/>
<path d="M414.911 726L364 748.347L367.998 757.455L418.909 735.107L414.911 726Z" fill="white"/>
<path d="M393.13 747.682C390.986 752.704 390.925 758.372 392.959 763.439C394.994 768.506 398.959 772.558 403.981 774.702C409.002 776.846 414.67 776.907 419.737 774.872C424.805 772.837 428.856 768.873 431 763.851L393.13 747.682Z" fill="#7F8CFF"/>
<path d="M1193.5 581C1214.21 581 1231 564.211 1231 543.5C1231 522.789 1214.21 506 1193.5 506C1172.79 506 1156 522.789 1156 543.5C1156 564.211 1172.79 581 1193.5 581Z" fill="#7F8CFF"/>
</svg>
