<svg width="375" height="779" viewBox="0 0 375 779" fill="none" xmlns="http://www.w3.org/2000/svg">
<path d="M0 779H375V0H80C35.8172 0 0 35.8172 0 80V779Z" fill="#6070FF"/>
<g clip-path="url(#clip0_2_2)">
<path d="M378.673 21.9996L310 51.3994L316.773 67.2211L385.446 37.8213L378.673 21.9996Z" fill="#7F8CFF"/>
<path d="M412.207 72.4103C408.738 66.3223 403.869 61.1276 397.993 57.2466C392.117 53.3657 385.4 50.9077 378.384 50.0716C371.369 49.2356 364.253 50.045 357.613 52.4343C350.973 54.8235 344.995 58.7256 340.163 63.8244C335.332 68.9233 331.782 75.0756 329.803 81.7833C327.823 88.491 327.468 95.5655 328.767 102.434C330.066 109.302 332.983 115.772 337.281 121.318C341.579 126.865 347.137 131.332 353.505 134.359L361.894 117.101C358.266 115.377 355.099 112.831 352.651 109.672C350.202 106.512 348.541 102.826 347.801 98.9132C347.06 95.0003 347.263 90.9699 348.39 87.1486C349.518 83.3272 351.54 79.8222 354.293 76.9174C357.046 74.0126 360.451 71.7896 364.234 70.4285C368.017 69.0673 372.071 68.6062 376.067 69.0825C380.064 69.5588 383.891 70.9591 387.239 73.1701C390.586 75.381 393.36 78.3405 395.336 81.8088L412.207 72.4103Z" fill="white"/>
<path d="M163.5 77C169.299 77 174 72.299 174 66.5C174 60.701 169.299 56 163.5 56C157.701 56 153 60.701 153 66.5C153 72.299 157.701 77 163.5 77Z" fill="#7F8CFF"/>
<path d="M319.849 721.455L258.805 675.889L266.957 664.969L328.001 710.535L319.849 721.455Z" fill="#7F8CFF"/>
<path d="M263.498 719.436C269.141 725.914 278.967 726.591 285.445 720.949C291.923 715.306 292.6 705.48 286.958 699.002C281.315 692.524 271.489 691.847 265.011 697.489C258.533 703.132 257.856 712.958 263.498 719.436Z" fill="white"/>
</g>
<defs>
<clipPath id="clip0_2_2">
<rect width="222" height="710" fill="white" transform="translate(153 22)"/>
</clipPath>
</defs>
</svg>
